<svg width="16" height="16" viewBox="0 0 16 16" fill="none" xmlns="http://www.w3.org/2000/svg">
<path d="M7.53317 12.8667C7.41095 12.7444 7.34695 12.5889 7.34117 12.4C7.3354 12.2111 7.39384 12.0556 7.51651 11.9333L10.7832 8.66666H3.33317C3.14428 8.66666 2.98584 8.60266 2.85784 8.47466C2.72984 8.34666 2.66606 8.18844 2.66651 8C2.66651 7.81111 2.73051 7.65266 2.85851 7.52466C2.98651 7.39666 3.14473 7.33289 3.33317 7.33333H10.7832L7.51651 4.06666C7.39428 3.94444 7.33584 3.78889 7.34117 3.6C7.34651 3.41111 7.41051 3.25555 7.53317 3.13333C7.6554 3.01111 7.81095 2.95 7.99984 2.95C8.18873 2.95 8.34428 3.01111 8.46651 3.13333L12.8665 7.53333C12.9332 7.58889 12.9805 7.65844 13.0085 7.742C13.0365 7.82555 13.0503 7.91155 13.0498 8C13.0498 8.08889 13.0361 8.17222 13.0085 8.25C12.981 8.32777 12.9336 8.4 12.8665 8.46666L8.46651 12.8667C8.34428 12.9889 8.18873 13.05 7.99984 13.05C7.81095 13.05 7.6554 12.9889 7.53317 12.8667Z" fill="black"/>
</svg>
