<svg width="16" height="16" viewBox="0 0 16 16" fill="none" xmlns="http://www.w3.org/2000/svg">
<path d="M7.5333 12.8667C7.41107 12.7445 7.34707 12.5889 7.3413 12.4C7.33552 12.2111 7.39396 12.0556 7.51663 11.9333L10.7833 8.66668H3.33329C3.14441 8.66668 2.98596 8.60268 2.85796 8.47468C2.72996 8.34668 2.66618 8.18846 2.66663 8.00001C2.66663 7.81112 2.73063 7.65268 2.85863 7.52468C2.98663 7.39668 3.14485 7.3329 3.33329 7.33335H10.7833L7.51663 4.06668C7.39441 3.94446 7.33596 3.7889 7.3413 3.60001C7.34663 3.41112 7.41063 3.25557 7.5333 3.13335C7.65552 3.01112 7.81107 2.95001 7.99996 2.95001C8.18885 2.95001 8.34441 3.01112 8.46663 3.13335L12.8666 7.53335C12.9333 7.5889 12.9806 7.65846 13.0086 7.74201C13.0366 7.82557 13.0504 7.91157 13.05 8.00001C13.05 8.0889 13.0362 8.17223 13.0086 8.25001C12.9811 8.32779 12.9337 8.40001 12.8666 8.46668L8.46663 12.8667C8.34441 12.9889 8.18885 13.05 7.99996 13.05C7.81107 13.05 7.65552 12.9889 7.5333 12.8667Z" fill="#FFAA05"/>
</svg>
